<mxfile host="app.diagrams.net" modified="2022-10-31T14:25:22.285Z" agent="5.0 (Windows NT 10.0; Win64; x64) AppleWebKit/537.36 (KHTML, like Gecko) Chrome/107.0.0.0 Safari/537.36 Edg/107.0.1418.26" etag="u08y7XLgJUA0z-VgG3Pc" version="20.5.1" type="github">
  <diagram id="wT3ADiDrV2agx27PlmXK" name="第 1 页">
    <mxGraphModel dx="981" dy="526" grid="1" gridSize="10" guides="1" tooltips="1" connect="1" arrows="1" fold="1" page="1" pageScale="1" pageWidth="827" pageHeight="1169" math="0" shadow="0">
      <root>
        <mxCell id="0" />
        <mxCell id="1" parent="0" />
        <mxCell id="J1Qt8mYfYJkXbZkIj3KN-58" style="edgeStyle=none;rounded=0;orthogonalLoop=1;jettySize=auto;html=1;entryX=0;entryY=0.5;entryDx=0;entryDy=0;strokeColor=default;endArrow=none;endFill=0;" edge="1" parent="1" source="J1Qt8mYfYJkXbZkIj3KN-52" target="J1Qt8mYfYJkXbZkIj3KN-53">
          <mxGeometry relative="1" as="geometry" />
        </mxCell>
        <mxCell id="J1Qt8mYfYJkXbZkIj3KN-52" value="医院" style="rounded=0;whiteSpace=wrap;html=1;strokeColor=default;" vertex="1" parent="1">
          <mxGeometry x="40" y="40" width="80" height="40" as="geometry" />
        </mxCell>
        <mxCell id="J1Qt8mYfYJkXbZkIj3KN-53" value="医院id" style="ellipse;whiteSpace=wrap;html=1;strokeColor=default;" vertex="1" parent="1">
          <mxGeometry x="220" y="40" width="80" height="40" as="geometry" />
        </mxCell>
        <mxCell id="J1Qt8mYfYJkXbZkIj3KN-68" style="edgeStyle=none;rounded=0;orthogonalLoop=1;jettySize=auto;html=1;exitX=1;exitY=0.5;exitDx=0;exitDy=0;entryX=0;entryY=0.5;entryDx=0;entryDy=0;strokeColor=default;endArrow=none;endFill=0;" edge="1" parent="1" source="J1Qt8mYfYJkXbZkIj3KN-54" target="J1Qt8mYfYJkXbZkIj3KN-53">
          <mxGeometry relative="1" as="geometry" />
        </mxCell>
        <mxCell id="J1Qt8mYfYJkXbZkIj3KN-69" style="edgeStyle=none;rounded=0;orthogonalLoop=1;jettySize=auto;html=1;exitX=1;exitY=0.5;exitDx=0;exitDy=0;entryX=0;entryY=0.5;entryDx=0;entryDy=0;strokeColor=default;endArrow=none;endFill=0;" edge="1" parent="1" source="J1Qt8mYfYJkXbZkIj3KN-54" target="J1Qt8mYfYJkXbZkIj3KN-55">
          <mxGeometry relative="1" as="geometry" />
        </mxCell>
        <mxCell id="J1Qt8mYfYJkXbZkIj3KN-54" value="科室" style="rounded=0;whiteSpace=wrap;html=1;strokeColor=default;" vertex="1" parent="1">
          <mxGeometry x="40" y="110" width="80" height="40" as="geometry" />
        </mxCell>
        <mxCell id="J1Qt8mYfYJkXbZkIj3KN-61" style="edgeStyle=none;rounded=0;orthogonalLoop=1;jettySize=auto;html=1;entryX=1;entryY=0.5;entryDx=0;entryDy=0;strokeColor=default;endArrow=none;endFill=0;" edge="1" parent="1" source="J1Qt8mYfYJkXbZkIj3KN-55" target="J1Qt8mYfYJkXbZkIj3KN-56">
          <mxGeometry relative="1" as="geometry" />
        </mxCell>
        <mxCell id="J1Qt8mYfYJkXbZkIj3KN-55" value="科室id" style="ellipse;whiteSpace=wrap;html=1;strokeColor=default;" vertex="1" parent="1">
          <mxGeometry x="220" y="120" width="80" height="40" as="geometry" />
        </mxCell>
        <mxCell id="J1Qt8mYfYJkXbZkIj3KN-62" style="edgeStyle=none;rounded=0;orthogonalLoop=1;jettySize=auto;html=1;entryX=1;entryY=0.5;entryDx=0;entryDy=0;strokeColor=default;endArrow=none;endFill=0;" edge="1" parent="1" source="J1Qt8mYfYJkXbZkIj3KN-56" target="J1Qt8mYfYJkXbZkIj3KN-57">
          <mxGeometry relative="1" as="geometry" />
        </mxCell>
        <mxCell id="J1Qt8mYfYJkXbZkIj3KN-70" style="edgeStyle=none;rounded=0;orthogonalLoop=1;jettySize=auto;html=1;exitX=1;exitY=0.5;exitDx=0;exitDy=0;entryX=0;entryY=0.5;entryDx=0;entryDy=0;strokeColor=default;endArrow=none;endFill=0;" edge="1" parent="1" source="J1Qt8mYfYJkXbZkIj3KN-56" target="J1Qt8mYfYJkXbZkIj3KN-53">
          <mxGeometry relative="1" as="geometry" />
        </mxCell>
        <mxCell id="J1Qt8mYfYJkXbZkIj3KN-56" value="医生" style="rounded=0;whiteSpace=wrap;html=1;strokeColor=default;" vertex="1" parent="1">
          <mxGeometry x="40" y="200" width="80" height="40" as="geometry" />
        </mxCell>
        <mxCell id="J1Qt8mYfYJkXbZkIj3KN-57" value="医生id" style="ellipse;whiteSpace=wrap;html=1;strokeColor=default;" vertex="1" parent="1">
          <mxGeometry x="220" y="200" width="80" height="40" as="geometry" />
        </mxCell>
        <mxCell id="J1Qt8mYfYJkXbZkIj3KN-65" style="edgeStyle=none;rounded=0;orthogonalLoop=1;jettySize=auto;html=1;exitX=0.75;exitY=1;exitDx=0;exitDy=0;entryX=0.5;entryY=1;entryDx=0;entryDy=0;strokeColor=default;endArrow=none;endFill=0;" edge="1" parent="1" source="J1Qt8mYfYJkXbZkIj3KN-54" target="J1Qt8mYfYJkXbZkIj3KN-54">
          <mxGeometry relative="1" as="geometry" />
        </mxCell>
        <mxCell id="J1Qt8mYfYJkXbZkIj3KN-71" style="edgeStyle=none;rounded=0;orthogonalLoop=1;jettySize=auto;html=1;exitX=0;exitY=0.5;exitDx=0;exitDy=0;entryX=1;entryY=0.5;entryDx=0;entryDy=0;strokeColor=default;endArrow=none;endFill=0;" edge="1" parent="1" source="J1Qt8mYfYJkXbZkIj3KN-66" target="J1Qt8mYfYJkXbZkIj3KN-53">
          <mxGeometry relative="1" as="geometry" />
        </mxCell>
        <mxCell id="J1Qt8mYfYJkXbZkIj3KN-72" style="edgeStyle=none;rounded=0;orthogonalLoop=1;jettySize=auto;html=1;exitX=0;exitY=0.5;exitDx=0;exitDy=0;entryX=1;entryY=0.5;entryDx=0;entryDy=0;strokeColor=default;endArrow=none;endFill=0;" edge="1" parent="1" source="J1Qt8mYfYJkXbZkIj3KN-66" target="J1Qt8mYfYJkXbZkIj3KN-55">
          <mxGeometry relative="1" as="geometry" />
        </mxCell>
        <mxCell id="J1Qt8mYfYJkXbZkIj3KN-73" style="edgeStyle=none;rounded=0;orthogonalLoop=1;jettySize=auto;html=1;exitX=0;exitY=0.5;exitDx=0;exitDy=0;entryX=1;entryY=0.5;entryDx=0;entryDy=0;strokeColor=default;endArrow=none;endFill=0;" edge="1" parent="1" source="J1Qt8mYfYJkXbZkIj3KN-66" target="J1Qt8mYfYJkXbZkIj3KN-57">
          <mxGeometry relative="1" as="geometry" />
        </mxCell>
        <mxCell id="J1Qt8mYfYJkXbZkIj3KN-78" style="edgeStyle=none;rounded=0;orthogonalLoop=1;jettySize=auto;html=1;exitX=1;exitY=0.5;exitDx=0;exitDy=0;entryX=0;entryY=0.5;entryDx=0;entryDy=0;strokeColor=default;endArrow=none;endFill=0;" edge="1" parent="1" source="J1Qt8mYfYJkXbZkIj3KN-66" target="J1Qt8mYfYJkXbZkIj3KN-77">
          <mxGeometry relative="1" as="geometry" />
        </mxCell>
        <mxCell id="J1Qt8mYfYJkXbZkIj3KN-66" value="订单" style="rounded=0;whiteSpace=wrap;html=1;strokeColor=default;" vertex="1" parent="1">
          <mxGeometry x="350" y="120" width="80" height="40" as="geometry" />
        </mxCell>
        <mxCell id="J1Qt8mYfYJkXbZkIj3KN-74" value="用户" style="rounded=0;whiteSpace=wrap;html=1;strokeColor=default;" vertex="1" parent="1">
          <mxGeometry x="610" y="120" width="80" height="40" as="geometry" />
        </mxCell>
        <mxCell id="J1Qt8mYfYJkXbZkIj3KN-76" style="edgeStyle=none;rounded=0;orthogonalLoop=1;jettySize=auto;html=1;exitX=0;exitY=0.5;exitDx=0;exitDy=0;entryX=1;entryY=0.5;entryDx=0;entryDy=0;strokeColor=default;endArrow=none;endFill=0;" edge="1" parent="1" source="J1Qt8mYfYJkXbZkIj3KN-75" target="J1Qt8mYfYJkXbZkIj3KN-66">
          <mxGeometry relative="1" as="geometry" />
        </mxCell>
        <mxCell id="J1Qt8mYfYJkXbZkIj3KN-75" value="订单id" style="ellipse;whiteSpace=wrap;html=1;strokeColor=default;" vertex="1" parent="1">
          <mxGeometry x="480" y="40" width="80" height="40" as="geometry" />
        </mxCell>
        <mxCell id="J1Qt8mYfYJkXbZkIj3KN-79" style="edgeStyle=none;rounded=0;orthogonalLoop=1;jettySize=auto;html=1;exitX=1;exitY=0.5;exitDx=0;exitDy=0;entryX=0;entryY=0.5;entryDx=0;entryDy=0;strokeColor=default;endArrow=none;endFill=0;" edge="1" parent="1" source="J1Qt8mYfYJkXbZkIj3KN-77" target="J1Qt8mYfYJkXbZkIj3KN-74">
          <mxGeometry relative="1" as="geometry" />
        </mxCell>
        <mxCell id="J1Qt8mYfYJkXbZkIj3KN-87" style="edgeStyle=none;rounded=0;orthogonalLoop=1;jettySize=auto;html=1;exitX=0;exitY=1;exitDx=0;exitDy=0;entryX=1;entryY=0.5;entryDx=0;entryDy=0;strokeColor=default;endArrow=none;endFill=0;" edge="1" parent="1" source="J1Qt8mYfYJkXbZkIj3KN-77" target="J1Qt8mYfYJkXbZkIj3KN-86">
          <mxGeometry relative="1" as="geometry" />
        </mxCell>
        <mxCell id="J1Qt8mYfYJkXbZkIj3KN-89" style="edgeStyle=none;rounded=0;orthogonalLoop=1;jettySize=auto;html=1;exitX=1;exitY=1;exitDx=0;exitDy=0;entryX=0;entryY=0.5;entryDx=0;entryDy=0;strokeColor=default;endArrow=none;endFill=0;" edge="1" parent="1" source="J1Qt8mYfYJkXbZkIj3KN-77" target="J1Qt8mYfYJkXbZkIj3KN-81">
          <mxGeometry relative="1" as="geometry" />
        </mxCell>
        <mxCell id="J1Qt8mYfYJkXbZkIj3KN-77" value="用户id" style="ellipse;whiteSpace=wrap;html=1;strokeColor=default;" vertex="1" parent="1">
          <mxGeometry x="480" y="140" width="80" height="40" as="geometry" />
        </mxCell>
        <mxCell id="J1Qt8mYfYJkXbZkIj3KN-83" style="edgeStyle=none;rounded=0;orthogonalLoop=1;jettySize=auto;html=1;exitX=1;exitY=0.5;exitDx=0;exitDy=0;entryX=0;entryY=0.5;entryDx=0;entryDy=0;strokeColor=default;endArrow=none;endFill=0;" edge="1" parent="1" source="J1Qt8mYfYJkXbZkIj3KN-80" target="J1Qt8mYfYJkXbZkIj3KN-82">
          <mxGeometry relative="1" as="geometry" />
        </mxCell>
        <mxCell id="J1Qt8mYfYJkXbZkIj3KN-80" value="资讯" style="rounded=0;whiteSpace=wrap;html=1;strokeColor=default;" vertex="1" parent="1">
          <mxGeometry x="350" y="250" width="80" height="40" as="geometry" />
        </mxCell>
        <mxCell id="J1Qt8mYfYJkXbZkIj3KN-81" value="资讯历史" style="rounded=0;whiteSpace=wrap;html=1;strokeColor=default;" vertex="1" parent="1">
          <mxGeometry x="610" y="180" width="80" height="40" as="geometry" />
        </mxCell>
        <mxCell id="J1Qt8mYfYJkXbZkIj3KN-84" style="edgeStyle=none;rounded=0;orthogonalLoop=1;jettySize=auto;html=1;exitX=0.5;exitY=0;exitDx=0;exitDy=0;entryX=0;entryY=0.5;entryDx=0;entryDy=0;strokeColor=default;endArrow=none;endFill=0;" edge="1" parent="1" source="J1Qt8mYfYJkXbZkIj3KN-82" target="J1Qt8mYfYJkXbZkIj3KN-81">
          <mxGeometry relative="1" as="geometry" />
        </mxCell>
        <mxCell id="J1Qt8mYfYJkXbZkIj3KN-82" value="资讯id" style="ellipse;whiteSpace=wrap;html=1;strokeColor=default;" vertex="1" parent="1">
          <mxGeometry x="480" y="250" width="80" height="40" as="geometry" />
        </mxCell>
        <mxCell id="J1Qt8mYfYJkXbZkIj3KN-88" style="edgeStyle=none;rounded=0;orthogonalLoop=1;jettySize=auto;html=1;exitX=1;exitY=0.5;exitDx=0;exitDy=0;entryX=0.5;entryY=0;entryDx=0;entryDy=0;strokeColor=default;endArrow=none;endFill=0;" edge="1" parent="1" source="J1Qt8mYfYJkXbZkIj3KN-86" target="J1Qt8mYfYJkXbZkIj3KN-82">
          <mxGeometry relative="1" as="geometry" />
        </mxCell>
        <mxCell id="J1Qt8mYfYJkXbZkIj3KN-86" value="资讯收藏" style="rounded=0;whiteSpace=wrap;html=1;strokeColor=default;" vertex="1" parent="1">
          <mxGeometry x="350" y="180" width="80" height="40" as="geometry" />
        </mxCell>
        <mxCell id="J1Qt8mYfYJkXbZkIj3KN-92" style="edgeStyle=none;rounded=0;orthogonalLoop=1;jettySize=auto;html=1;exitX=0;exitY=0.5;exitDx=0;exitDy=0;entryX=1;entryY=0.5;entryDx=0;entryDy=0;strokeColor=default;endArrow=none;endFill=0;" edge="1" parent="1" source="J1Qt8mYfYJkXbZkIj3KN-91" target="J1Qt8mYfYJkXbZkIj3KN-82">
          <mxGeometry relative="1" as="geometry" />
        </mxCell>
        <mxCell id="J1Qt8mYfYJkXbZkIj3KN-93" style="edgeStyle=none;rounded=0;orthogonalLoop=1;jettySize=auto;html=1;exitX=0;exitY=0.5;exitDx=0;exitDy=0;entryX=0.5;entryY=1;entryDx=0;entryDy=0;strokeColor=default;endArrow=none;endFill=0;" edge="1" parent="1" source="J1Qt8mYfYJkXbZkIj3KN-91" target="J1Qt8mYfYJkXbZkIj3KN-77">
          <mxGeometry relative="1" as="geometry" />
        </mxCell>
        <mxCell id="J1Qt8mYfYJkXbZkIj3KN-91" value="资讯评论" style="rounded=0;whiteSpace=wrap;html=1;strokeColor=default;" vertex="1" parent="1">
          <mxGeometry x="610" y="250" width="80" height="40" as="geometry" />
        </mxCell>
      </root>
    </mxGraphModel>
  </diagram>
</mxfile>
